<svg width="332" height="104" version="1.1" xmlns="http://www.w3.org/2000/svg" desc="Created with imagetracer.js version 1.2.6" ><path fill="rgb(0,0,0)" stroke="rgb(0,0,0)" stroke-width="1" opacity="0.23529411764705882" d="M 81.5 0 L 82 9.5 L 81 9.5 L 81.5 0 Z " /><path fill="rgb(0,0,0)" stroke="rgb(0,0,0)" stroke-width="1" opacity="0.23529411764705882" d="M 59.5 10 L 62.5 14 L 59.5 10 Z " /><path fill="rgb(0,0,0)" stroke="rgb(0,0,0)" stroke-width="1" opacity="0.23529411764705882" d="M 63.5 15 L 64 19.5 L 63 19.5 L 63.5 15 Z " /><path fill="rgb(0,0,0)" stroke="rgb(0,0,0)" stroke-width="1" opacity="0.23529411764705882" d="M 19.5 17 Q 23.3 16.3 24 18.5 L 24 33 L 38.5 33 L 40 34.5 L 40 45 L 24 44.5 L 39 44 L 39 34 L 24.5 34 L 23 32.5 L 23 18 Q 18.6 19 19.5 17 Z " /><path fill="rgb(0,0,0)" stroke="rgb(0,0,0)" stroke-width="1" opacity="0.23529411764705882" d="M 153.5 17 L 157 17.5 L 153.5 18 L 153.5 17 Z " /><path fill="rgb(0,0,0)" stroke="rgb(0,0,0)" stroke-width="1" opacity="0.23529411764705882" d="M 49.5 22 L 51.5 25 L 49.5 22 Z " /><path fill="rgb(0,0,0)" stroke="rgb(0,0,0)" stroke-width="1" opacity="0.23529411764705882" d="M 54.5 25 L 58 25.5 L 54.5 26 L 54.5 25 Z " /><path fill="rgb(0,0,0)" stroke="rgb(0,0,0)" stroke-width="1" opacity="0.23529411764705882" d="M 100.5 31 L 110 31.5 L 100.5 32 L 100.5 31 Z " /><path fill="rgb(0,0,0)" stroke="rgb(0,0,0)" stroke-width="1" opacity="0.23529411764705882" d="M 200.5 32 L 203 32.5 L 200.5 33 L 200.5 32 Z " /><path fill="rgb(0,0,0)" stroke="rgb(0,0,0)" stroke-width="1" opacity="0.23529411764705882" d="M 0.5 33 L 11 33.5 L 0.5 34 L 0.5 33 Z " /><path fill="rgb(0,0,0)" stroke="rgb(0,0,0)" stroke-width="1" opacity="0.23529411764705882" d="M 49.5 33 L 62 33.5 L 49.5 34 L 49.5 33 Z " /><path fill="rgb(0,0,0)" stroke="rgb(0,0,0)" stroke-width="1" opacity="0.23529411764705882" d="M 133.5 33 L 144 33.5 L 133.5 34 L 133.5 33 Z " /><path fill="rgb(0,0,0)" stroke="rgb(0,0,0)" stroke-width="1" opacity="0.23529411764705882" d="M 157.5 33 L 173 33.5 L 157.5 34 L 157.5 33 Z " /><path fill="rgb(0,0,0)" stroke="rgb(0,0,0)" stroke-width="1" opacity="0.23529411764705882" d="M 245.5 33 L 257 33.5 L 245 34 L 245 86.5 L 245.5 87 L 257 87 L 257.5 58 L 258 86.5 L 256.5 88 L 245.5 88 L 244 86.5 L 244 34.5 L 245.5 33 Z " /><path fill="rgb(0,0,0)" stroke="rgb(0,0,0)" stroke-width="1" opacity="0.23529411764705882" d="M 269.5 33 L 277 33.5 L 269.5 34 L 269.5 33 Z " /><path fill="rgb(0,0,0)" stroke="rgb(0,0,0)" stroke-width="1" opacity="0.23529411764705882" d="M 278.5 33 L 291 33.5 L 278.5 34 L 278.5 33 Z " /><path fill="rgb(0,0,0)" stroke="rgb(0,0,0)" stroke-width="1" opacity="0.23529411764705882" d="M 319.5 33 L 332 33.5 L 319.5 34 L 319.5 33 Z " /><path fill="rgb(0,0,0)" stroke="rgb(0,0,0)" stroke-width="1" opacity="0.23529411764705882" d="M 90.5 34 L 89.5 36 L 90.5 34 Z " /><path fill="rgb(0,0,0)" stroke="rgb(0,0,0)" stroke-width="1" opacity="0.23529411764705882" d="M 49.5 35 L 50 87 L 62 87.5 L 50.5 88 L 49 86.5 L 49.5 35 Z " /><path fill="rgb(0,0,0)" stroke="rgb(0,0,0)" stroke-width="1" opacity="0.23529411764705882" d="M 192.5 35 L 191.5 37 L 192.5 35 Z " /><path fill="rgb(0,0,0)" stroke="rgb(0,0,0)" stroke-width="1" opacity="0.23529411764705882" d="M 222.5 36 L 223.5 38 L 222.5 36 Z " /><path fill="rgb(0,0,0)" stroke="rgb(0,0,0)" stroke-width="1" opacity="0.23529411764705882" d="M 261.5 36 L 258.5 40 L 261.5 36 Z " /><path fill="rgb(0,0,0)" stroke="rgb(0,0,0)" stroke-width="1" opacity="0.23529411764705882" d="M 86.5 37 L 85.5 39 L 86.5 37 Z " /><path fill="rgb(0,0,0)" stroke="rgb(0,0,0)" stroke-width="1" opacity="0.23529411764705882" d="M 188.5 38 L 185.5 42 L 188.5 38 Z " /><path fill="rgb(0,0,0)" stroke="rgb(0,0,0)" stroke-width="1" opacity="0.23529411764705882" d="M 124.5 39 L 125.5 41 L 124.5 39 Z " /><path fill="rgb(0,0,0)" stroke="rgb(0,0,0)" stroke-width="1" opacity="0.23529411764705882" d="M 228.5 42 L 229.5 44 L 228.5 42 Z " /><path fill="rgb(0,0,0)" stroke="rgb(0,0,0)" stroke-width="1" opacity="0.23529411764705882" d="M 0.5 44 L 10 44.5 L 0.5 45 L 0.5 44 Z " /><path fill="rgb(0,0,0)" stroke="rgb(0,0,0)" stroke-width="1" opacity="0.23529411764705882" d="M 133.5 44 L 144 44.5 L 133.5 45 L 133.5 44 Z " /><path fill="rgb(0,0,0)" stroke="rgb(0,0,0)" stroke-width="1" opacity="0.23529411764705882" d="M 157.5 44 L 173 44.5 L 157.5 45 L 157.5 44 Z " /><path fill="rgb(0,0,0)" stroke="rgb(0,0,0)" stroke-width="1" opacity="0.23529411764705882" d="M 183.5 44 L 182.5 46 L 183.5 44 Z " /><path fill="rgb(0,0,0)" stroke="rgb(0,0,0)" stroke-width="1" opacity="0.23529411764705882" d="M 272.5 44 L 277 44.5 L 272.5 45 L 272.5 44 Z " /><path fill="rgb(0,0,0)" stroke="rgb(0,0,0)" stroke-width="1" opacity="0.23529411764705882" d="M 23.5 46 L 24 66.5 L 23 66.5 L 23.5 46 Z " /><path fill="rgb(0,0,0)" stroke="rgb(0,0,0)" stroke-width="1" opacity="0.23529411764705882" d="M 215.5 46 L 218.5 50 L 215.5 46 Z " /><path fill="rgb(0,0,0)" stroke="rgb(0,0,0)" stroke-width="1" opacity="0.23529411764705882" d="M 264.5 46 L 263.5 48 L 264.5 46 Z " /><path fill="rgb(0,0,0)" stroke="rgb(0,0,0)" stroke-width="1" opacity="0.23529411764705882" d="M 115.5 49 L 128 49.5 L 115.5 50 L 115.5 49 Z " /><path fill="rgb(0,0,0)" stroke="rgb(0,0,0)" stroke-width="1" opacity="0.23529411764705882" d="M 234.5 55 L 235 57.5 L 234 57.5 L 234.5 55 Z " /><path fill="rgb(0,0,0)" stroke="rgb(0,0,0)" stroke-width="1" opacity="0.23529411764705882" d="M 191.5 58 L 192 62.5 L 191 62.5 L 191.5 58 Z " /><path fill="rgb(0,0,0)" stroke="rgb(0,0,0)" stroke-width="1" opacity="0.23529411764705882" d="M 87.5 59 L 88.5 61 L 87.5 59 Z " /><path fill="rgb(0,0,0)" stroke="rgb(0,0,0)" stroke-width="1" opacity="0.23529411764705882" d="M 123.5 59 L 126.5 63 L 123.5 59 Z " /><path fill="rgb(0,0,0)" stroke="rgb(0,0,0)" stroke-width="1" opacity="0.23529411764705882" d="M 234.5 63 L 235 65.5 L 234 65.5 L 234.5 63 Z " /><path fill="rgb(0,0,0)" stroke="rgb(0,0,0)" stroke-width="1" opacity="0.23529411764705882" d="M 128.5 67 L 129 73.5 L 128 73.5 L 128.5 67 Z " /><path fill="rgb(0,0,0)" stroke="rgb(0,0,0)" stroke-width="1" opacity="0.23529411764705882" d="M 144.5 68 L 145 72.5 L 144 72.5 L 144.5 68 Z " /><path fill="rgb(0,0,0)" stroke="rgb(0,0,0)" stroke-width="1" opacity="0.23529411764705882" d="M 304 68 Q 307 67 306 70 Q 303 71 304 68 Z " /><path fill="rgb(0,0,0)" stroke="rgb(0,0,0)" stroke-width="1" opacity="0.23529411764705882" d="M 157.5 69 L 158 71.5 L 157 71.5 L 157.5 69 Z " /><path fill="rgb(0,0,0)" stroke="rgb(0,0,0)" stroke-width="1" opacity="0.23529411764705882" d="M 218.5 71 L 216.5 74 L 218.5 71 Z " /><path fill="rgb(0,0,0)" stroke="rgb(0,0,0)" stroke-width="1" opacity="0.23529411764705882" d="M 158.5 73 L 160.5 76 L 158.5 73 Z " /><path fill="rgb(0,0,0)" stroke="rgb(0,0,0)" stroke-width="1" opacity="0.23529411764705882" d="M 197.5 73 L 198.5 75 L 197.5 73 Z " /><path fill="rgb(0,0,0)" stroke="rgb(0,0,0)" stroke-width="1" opacity="0.23529411764705882" d="M 114.5 75 L 113.5 77 L 114.5 75 Z " /><path fill="rgb(0,0,0)" stroke="rgb(0,0,0)" stroke-width="1" opacity="0.23529411764705882" d="M 30.5 76 L 38.5 76 L 40 77.5 L 40 86.5 L 38.5 88 L 28 87.5 L 39 87 L 39 77 L 30.5 77 L 30.5 76 Z " /><path fill="rgb(0,0,0)" stroke="rgb(0,0,0)" stroke-width="1" opacity="0.23529411764705882" d="M 163.5 76 L 173 76.5 L 163.5 77 L 163.5 76 Z " /><path fill="rgb(0,0,0)" stroke="rgb(0,0,0)" stroke-width="1" opacity="0.23529411764705882" d="M 229.5 77 L 228.5 79 L 229.5 77 Z " /><path fill="rgb(0,0,0)" stroke="rgb(0,0,0)" stroke-width="1" opacity="0.23529411764705882" d="M 104.5 78 L 108 78.5 L 104.5 79 L 104.5 78 Z " /><path fill="rgb(0,0,0)" stroke="rgb(0,0,0)" stroke-width="1" opacity="0.23529411764705882" d="M 186.5 80 L 187.5 82 L 186.5 80 Z " /><path fill="rgb(0,0,0)" stroke="rgb(0,0,0)" stroke-width="1" opacity="0.23529411764705882" d="M 14.5 81 L 16.5 84 L 14.5 81 Z " /><path fill="rgb(0,0,0)" stroke="rgb(0,0,0)" stroke-width="1" opacity="0.23529411764705882" d="M 224.5 82 L 223.5 84 L 224.5 82 Z " /><path fill="rgb(0,0,0)" stroke="rgb(0,0,0)" stroke-width="1" opacity="0.23529411764705882" d="M 190.5 83 L 191.5 85 L 190.5 83 Z " /><path fill="rgb(0,0,0)" stroke="rgb(0,0,0)" stroke-width="1" opacity="0.23529411764705882" d="M 89.5 84 L 90.5 86 L 89.5 84 Z " /><path fill="rgb(0,0,0)" stroke="rgb(0,0,0)" stroke-width="1" opacity="0.23529411764705882" d="M 161.5 87 L 173 87.5 L 161.5 88 L 161.5 87 Z " /><path fill="rgb(0,0,0)" stroke="rgb(0,0,0)" stroke-width="1" opacity="0.23529411764705882" d="M 98.5 88 L 101 88.5 L 98.5 89 L 98.5 88 Z " /><path fill="rgb(0,0,0)" stroke="rgb(0,0,0)" stroke-width="1" opacity="0.23529411764705882" d="M 201.5 88 L 204 88.5 L 201.5 89 L 201.5 88 Z " /><path fill="rgb(0,0,0)" stroke="rgb(0,0,0)" stroke-width="1" opacity="0.23529411764705882" d="M 209.5 88 L 212 88.5 L 209.5 89 L 209.5 88 Z " /><path fill="rgb(0,0,0)" stroke="rgb(0,0,0)" stroke-width="1" opacity="0" d="M 0 0 L 80.5 0 L 81 0.5 L 81 9.5 L 81.5 10 L 331.5 10 L 332 10.5 L 332 33 L 319.5 33 L 318 34.5 L 308 58.5 L 306 68 Q 302.7 69.3 304 64.5 L 294 38.5 L 290.5 33 L 278.5 33 L 278 35.5 L 298 85.5 L 291 103 L 304.5 103 L 306 101.5 L 331.5 36 L 332 104 L 0.5 104 L 0 103.5 L 0 45 L 11 45 L 11 74.5 L 16.5 84 L 22.5 87 L 38.5 88 L 40 86.5 L 40 77.5 L 38.5 76 L 28.5 76 L 25 73.5 L 24 71.5 L 24 45 L 40 45 L 40 34.5 L 38.5 33 L 24 33 L 24 18.5 L 22.5 17 L 11 18 L 11 33 L 0 33 L 0 0 Z M 53 10 L 48 15 L 49 23 L 55 26 L 60 25 L 64 20 L 63 14 Q 61 8 53 10 Z M 154 17 L 153 18 L 144 18 L 144 33 L 133 33 L 133 45 L 144 45 L 144 73 L 146 80 L 156 87 L 173 88 L 173 76 L 162 76 L 158 73 L 157 69 L 157 45 L 173 45 L 173 33 L 157 33 L 157 18 L 154 17 Z M 101 31 L 93 33 L 87 37 L 82 45 L 83 56 L 91 62 L 111 66 L 115 68 L 116 74 L 111 78 Q 102 80 98 76 L 94 70 L 81 71 L 84 80 Q 89 87 99 89 Q 114 91 122 85 Q 127 81 129 74 Q 130 66 127 63 L 121 57 L 98 52 Q 94 51 95 46 L 101 42 Q 109 41 113 44 L 115 48 L 116 50 L 128 50 L 126 41 Q 122 35 115 32 L 101 31 Z M 201 32 L 189 38 Q 181 43 179 54 L 179 68 L 186 81 Q 192 87 202 89 L 212 89 L 224 84 Q 233 78 235 66 L 234 52 L 227 39 L 217 33 L 201 32 Z M 49 33 L 49 87 L 51 88 L 62 88 L 62 34 L 62 33 L 49 33 Z M 246 33 L 244 35 L 244 87 L 246 88 L 257 88 L 258 87 L 258 56 L 261 50 L 268 45 L 277 45 L 277 33 Q 267 32 262 36 L 258 41 L 257 41 L 257 33 L 246 33 Z " /><path fill="rgb(0,0,0)" stroke="rgb(0,0,0)" stroke-width="1" opacity="0" d="M 203.5 44 Q 216.1 43.4 220 51.5 Q 223.1 55.9 222 64.5 Q 220.2 71.7 214.5 75 L 205.5 77 Q 198.8 75.8 195 71.5 Q 190.3 66.7 192 55.5 L 197.5 47 L 203.5 44 Z " /><path fill="rgb(0,0,0)" stroke="rgb(0,0,0)" stroke-width="1" opacity="0.7843137254901961" d="M 82.5 9 L 332 9.5 L 82.5 10 L 82.5 9 Z " /><path fill="rgb(0,0,0)" stroke="rgb(0,0,0)" stroke-width="1" opacity="0.7843137254901961" d="M 51.5 11 L 49.5 14 L 51.5 11 Z " /><path fill="rgb(0,0,0)" stroke="rgb(0,0,0)" stroke-width="1" opacity="0.7843137254901961" d="M 144.5 18 L 145 33.5 L 144 33.5 L 144.5 18 Z " /><path fill="rgb(0,0,0)" stroke="rgb(0,0,0)" stroke-width="1" opacity="0.7843137254901961" d="M 61.5 22 L 60.5 24 L 61.5 22 Z " /><path fill="rgb(0,0,0)" stroke="rgb(0,0,0)" stroke-width="1" opacity="0.7843137254901961" d="M 203.5 32 L 206 32.5 L 203.5 33 L 203.5 32 Z " /><path fill="rgb(0,0,0)" stroke="rgb(0,0,0)" stroke-width="1" opacity="0.7843137254901961" d="M 207.5 32 L 211 32.5 L 207.5 33 L 207.5 32 Z " /><path fill="rgb(0,0,0)" stroke="rgb(0,0,0)" stroke-width="1" opacity="0.7843137254901961" d="M 133.5 34 L 134 43.5 L 133 43.5 L 133.5 34 Z " /><path fill="rgb(0,0,0)" stroke="rgb(0,0,0)" stroke-width="1" opacity="0.7843137254901961" d="M 172.5 34 L 173 42.5 L 172 42.5 L 172.5 34 Z " /><path fill="rgb(0,0,0)" stroke="rgb(0,0,0)" stroke-width="1" opacity="0.7843137254901961" d="M 256.5 34 L 257 40.5 L 256 40.5 L 256.5 34 Z " /><path fill="rgb(0,0,0)" stroke="rgb(0,0,0)" stroke-width="1" opacity="0.7843137254901961" d="M 276.5 34 L 277 43.5 L 276 43.5 L 276.5 34 Z " /><path fill="rgb(0,0,0)" stroke="rgb(0,0,0)" stroke-width="1" opacity="0.7843137254901961" d="M 88.5 36 L 87.5 38 L 88.5 36 Z " /><path fill="rgb(0,0,0)" stroke="rgb(0,0,0)" stroke-width="1" opacity="0.7843137254901961" d="M 121.5 36 L 123.5 39 L 121.5 36 Z " /><path fill="rgb(0,0,0)" stroke="rgb(0,0,0)" stroke-width="1" opacity="0.7843137254901961" d="M 190.5 37 L 189.5 39 L 190.5 37 Z " /><path fill="rgb(0,0,0)" stroke="rgb(0,0,0)" stroke-width="1" opacity="0.7843137254901961" d="M 224.5 38 L 227.5 42 L 224.5 38 Z " /><path fill="rgb(0,0,0)" stroke="rgb(0,0,0)" stroke-width="1" opacity="0.7843137254901961" d="M 101.5 41 L 107 41.5 L 101.5 42 L 101.5 41 Z " /><path fill="rgb(0,0,0)" stroke="rgb(0,0,0)" stroke-width="1" opacity="0.7843137254901961" d="M 185.5 42 L 184.5 44 L 185.5 42 Z " /><path fill="rgb(0,0,0)" stroke="rgb(0,0,0)" stroke-width="1" opacity="0.7843137254901961" d="M 96.5 43 L 95.5 45 L 96.5 43 Z " /><path fill="rgb(0,0,0)" stroke="rgb(0,0,0)" stroke-width="1" opacity="0.7843137254901961" d="M 205.5 43 L 208 43.5 L 205.5 44 L 205.5 43 Z " /><path fill="rgb(0,0,0)" stroke="rgb(0,0,0)" stroke-width="1" opacity="0.7843137254901961" d="M 113.5 44 L 114.5 46 L 113.5 44 Z " /><path fill="rgb(0,0,0)" stroke="rgb(0,0,0)" stroke-width="1" opacity="0.7843137254901961" d="M 144.5 44 L 145 67.5 L 144 67.5 L 144.5 44 Z " /><path fill="rgb(0,0,0)" stroke="rgb(0,0,0)" stroke-width="1" opacity="0.7843137254901961" d="M 268.5 44 L 272 44.5 L 268.5 45 L 268.5 44 Z " /><path fill="rgb(0,0,0)" stroke="rgb(0,0,0)" stroke-width="1" opacity="0.7843137254901961" d="M 82.5 46 L 83 51.5 L 82 51.5 L 82.5 46 Z " /><path fill="rgb(0,0,0)" stroke="rgb(0,0,0)" stroke-width="1" opacity="0.7843137254901961" d="M 197.5 46 L 194.5 50 L 197.5 46 Z " /><path fill="rgb(0,0,0)" stroke="rgb(0,0,0)" stroke-width="1" opacity="0.7843137254901961" d="M 262.5 47 L 260.5 50 L 262.5 47 Z " /><path fill="rgb(0,0,0)" stroke="rgb(0,0,0)" stroke-width="1" opacity="0.7843137254901961" d="M 219.5 50 L 220.5 52 L 219.5 50 Z " /><path fill="rgb(0,0,0)" stroke="rgb(0,0,0)" stroke-width="1" opacity="0.7843137254901961" d="M 179.5 55 L 180 57.5 L 179 57.5 L 179.5 55 Z " /><path fill="rgb(0,0,0)" stroke="rgb(0,0,0)" stroke-width="1" opacity="0.7843137254901961" d="M 191.5 55 L 192 57.5 L 191 57.5 L 191.5 55 Z " /><path fill="rgb(0,0,0)" stroke="rgb(0,0,0)" stroke-width="1" opacity="0.7843137254901961" d="M 84.5 56 L 86.5 59 L 84.5 56 Z " /><path fill="rgb(0,0,0)" stroke="rgb(0,0,0)" stroke-width="1" opacity="0.7843137254901961" d="M 222.5 58 L 223 62.5 L 222 62.5 L 222.5 58 Z " /><path fill="rgb(0,0,0)" stroke="rgb(0,0,0)" stroke-width="1" opacity="0.7843137254901961" d="M 234.5 58 L 235 62.5 L 234 62.5 L 234.5 58 Z " /><path fill="rgb(0,0,0)" stroke="rgb(0,0,0)" stroke-width="1" opacity="0.7843137254901961" d="M 179.5 63 L 180 65.5 L 179 65.5 L 179.5 63 Z " /><path fill="rgb(0,0,0)" stroke="rgb(0,0,0)" stroke-width="1" opacity="0.7843137254901961" d="M 23.5 67 L 24 70.5 L 23 70.5 L 23.5 67 Z " /><path fill="rgb(0,0,0)" stroke="rgb(0,0,0)" stroke-width="1" opacity="0.7843137254901961" d="M 11.5 69 L 12 72.5 L 11 72.5 L 11.5 69 Z " /><path fill="rgb(0,0,0)" stroke="rgb(0,0,0)" stroke-width="1" opacity="0.7843137254901961" d="M 82.5 70 L 92 70.5 L 82.5 71 L 82.5 70 Z " /><path fill="rgb(0,0,0)" stroke="rgb(0,0,0)" stroke-width="1" opacity="0.7843137254901961" d="M 24.5 73 L 26.5 76 L 24.5 73 Z " /><path fill="rgb(0,0,0)" stroke="rgb(0,0,0)" stroke-width="1" opacity="0.7843137254901961" d="M 95.5 74 L 97.5 77 L 95.5 74 Z " /><path fill="rgb(0,0,0)" stroke="rgb(0,0,0)" stroke-width="1" opacity="0.7843137254901961" d="M 230.5 75 L 229.5 77 L 230.5 75 Z " /><path fill="rgb(0,0,0)" stroke="rgb(0,0,0)" stroke-width="1" opacity="0.7843137254901961" d="M 172.5 77 L 173 86.5 L 172 86.5 L 172.5 77 Z " /><path fill="rgb(0,0,0)" stroke="rgb(0,0,0)" stroke-width="1" opacity="0.7843137254901961" d="M 184.5 77 L 185.5 79 L 184.5 77 Z " /><path fill="rgb(0,0,0)" stroke="rgb(0,0,0)" stroke-width="1" opacity="0.7843137254901961" d="M 227.5 79 L 225.5 82 L 227.5 79 Z " /><path fill="rgb(0,0,0)" stroke="rgb(0,0,0)" stroke-width="1" opacity="0.7843137254901961" d="M 85.5 80 L 88.5 84 L 85.5 80 Z " /><path fill="rgb(0,0,0)" stroke="rgb(0,0,0)" stroke-width="1" opacity="0.7843137254901961" d="M 147.5 80 L 150.5 84 L 147.5 80 Z " /><path fill="rgb(0,0,0)" stroke="rgb(0,0,0)" stroke-width="1" opacity="0.7843137254901961" d="M 124.5 81 L 122.5 84 L 124.5 81 Z " /><path fill="rgb(0,0,0)" stroke="rgb(0,0,0)" stroke-width="1" opacity="0.7843137254901961" d="M 188.5 81 L 189.5 83 L 188.5 81 Z " /><path fill="rgb(0,0,0)" stroke="rgb(0,0,0)" stroke-width="1" opacity="0.7843137254901961" d="M 101.5 88 L 110 88.5 L 101.5 89 L 101.5 88 Z " /><path fill="rgb(0,0,0)" stroke="rgb(0,0,0)" stroke-width="1" opacity="0.7843137254901961" d="M 204.5 88 L 209 88.5 L 204.5 89 L 204.5 88 Z " /><path fill="rgb(0,0,0)" stroke="rgb(0,0,0)" stroke-width="1" opacity="0.996078431372549" d="M 54.5 10 L 57 10.5 L 54.5 11 L 54.5 10 Z " /><path fill="rgb(0,0,0)" stroke="rgb(0,0,0)" stroke-width="1" opacity="0.996078431372549" d="M 11 18 L 13 18.5 L 11.5 21 L 11 18 Z " /><path fill="rgb(0,0,0)" stroke="rgb(0,0,0)" stroke-width="1" opacity="0.996078431372549" d="M 156.5 19 L 157 33.5 L 156 33.5 L 156.5 19 Z " /><path fill="rgb(0,0,0)" stroke="rgb(0,0,0)" stroke-width="1" opacity="0.996078431372549" d="M 11.5 22 L 12 33.5 L 11 33.5 L 11.5 22 Z " /><path fill="rgb(0,0,0)" stroke="rgb(0,0,0)" stroke-width="1" opacity="0.996078431372549" d="M 50.5 22 L 51.5 24 L 50.5 22 Z " /><path fill="rgb(0,0,0)" stroke="rgb(0,0,0)" stroke-width="1" opacity="0.996078431372549" d="M 261.5 37 L 259.5 40 L 261.5 37 Z " /><path fill="rgb(0,0,0)" stroke="rgb(0,0,0)" stroke-width="1" opacity="0.996078431372549" d="M 188.5 39 L 186.5 42 L 188.5 39 Z " /><path fill="rgb(0,0,0)" stroke="rgb(0,0,0)" stroke-width="1" opacity="0.996078431372549" d="M 258.5 41 L 258 42.5 Q 258.8 44.8 256.5 44 L 258.5 41 Z " /><path fill="rgb(0,0,0)" stroke="rgb(0,0,0)" stroke-width="1" opacity="0.996078431372549" d="M 228.5 43 L 229.5 45 L 228.5 43 Z " /><path fill="rgb(0,0,0)" stroke="rgb(0,0,0)" stroke-width="1" opacity="0.996078431372549" d="M 11.5 44 L 12 68.5 L 11 68.5 L 11.5 44 Z " /><path fill="rgb(0,0,0)" stroke="rgb(0,0,0)" stroke-width="1" opacity="0.996078431372549" d="M 156.5 44 L 157 67.5 L 156 67.5 L 156.5 44 Z " /><path fill="rgb(0,0,0)" stroke="rgb(0,0,0)" stroke-width="1" opacity="0.996078431372549" d="M 216.5 46 L 218.5 49 L 216.5 46 Z " /><path fill="rgb(0,0,0)" stroke="rgb(0,0,0)" stroke-width="1" opacity="0.996078431372549" d="M 122.5 59 L 125.5 63 L 122.5 59 Z " /><path fill="rgb(0,0,0)" stroke="rgb(0,0,0)" stroke-width="1" opacity="0.996078431372549" d="M 301.5 60 L 300.5 62 L 301.5 60 Z " /><path fill="rgb(0,0,0)" stroke="rgb(0,0,0)" stroke-width="1" opacity="0.996078431372549" d="M 106.5 63 L 107 65 L 105 64.5 L 106.5 63 Z " /><path fill="rgb(0,0,0)" stroke="rgb(0,0,0)" stroke-width="1" opacity="0.996078431372549" d="M 193.5 70 L 194.5 72 L 193.5 70 Z " /><path fill="rgb(0,0,0)" stroke="rgb(0,0,0)" stroke-width="1" opacity="0.996078431372549" d="M 196.5 73 L 197.5 75 L 196.5 73 Z " /><path fill="rgb(0,0,0)" stroke="rgb(0,0,0)" stroke-width="1" opacity="0.996078431372549" d="M 158.5 74 L 159.5 76 L 158.5 74 Z " /><path fill="rgb(0,0,0)" stroke="rgb(0,0,0)" stroke-width="1" opacity="0.996078431372549" d="M 115.5 75 L 114.5 77 L 115.5 75 Z " /><path fill="rgb(0,0,0)" stroke="rgb(0,0,0)" stroke-width="1" opacity="0.996078431372549" d="M 205.5 77 L 208 77.5 L 205.5 78 L 205.5 77 Z " /><path fill="rgb(0,0,0)" stroke="rgb(0,0,0)" stroke-width="1" opacity="0.996078431372549" d="M 186.5 79 L 187.5 81 L 186.5 79 Z " /><path fill="rgb(0,0,0)" stroke="rgb(0,0,0)" stroke-width="1" opacity="0.996078431372549" d="M 16.5 82 L 17.5 84 L 16.5 82 Z " /><path fill="rgb(0,0,0)" stroke="rgb(0,0,0)" stroke-width="1" opacity="0.996078431372549" d="M 223.5 82 L 222.5 84 L 223.5 82 Z " /><path fill="rgb(0,0,0)" stroke="rgb(0,0,0)" stroke-width="1" opacity="1" d="M 82 0 L 331.5 0 L 332 0.5 L 332 9 L 82.5 9 L 82 8.5 L 82 0 Z " /><path fill="rgb(0,0,0)" stroke="rgb(0,0,0)" stroke-width="1" opacity="1" d="M 52.5 11 Q 59.8 9.8 62 13.5 L 63 19.5 L 59.5 24 L 54.5 25 L 49 20.5 Q 47.5 12.5 52.5 11 Z " /><path fill="rgb(0,0,0)" stroke="rgb(0,0,0)" stroke-width="1" opacity="1" d="M 13.5 18 L 23 18 L 23 34 L 39 34 L 39 44 L 23 44 L 23 71.5 L 27.5 77 L 39 77 L 39 87 L 22.5 86 L 15 82 L 12 74.5 L 12 44 L 0 44 L 0 34 L 12 34 L 12 22.5 L 12 20.5 L 13.5 18 Z " /><path fill="rgb(0,0,0)" stroke="rgb(0,0,0)" stroke-width="1" opacity="1" d="M 145 18 L 156 18 L 156 34 L 172 34 L 172 44 L 156 44 L 156 67.5 L 157 72.5 L 159.5 76 L 161.5 77 L 172 77 L 172 87 L 159.5 87 Q 151.7 85.8 148 80.5 L 145 72.5 L 145 44 L 134 44 L 134 34 L 145 34 L 145 18 Z " /><path fill="rgb(0,0,0)" stroke="rgb(0,0,0)" stroke-width="1" opacity="1" d="M 100.5 32 Q 117.1 30.9 124 39.5 Q 127.7 42.9 127 49 L 116.5 49 L 116 47.5 L 112.5 43 Q 108.8 39.7 100.5 41 L 94 45.5 L 95 52 L 104.5 55 L 117.5 57 L 127 64.5 L 128 73.5 Q 126.5 80.5 121.5 84 Q 114.2 89.7 99.5 88 Q 89.8 86.2 85 79.5 L 82 71.5 L 94 71 Q 93.3 75.7 97.5 77 Q 101.5 80.5 110.5 79 L 116 75.5 L 117 70.5 L 114.5 67 L 107 65 L 106.5 63 L 101.5 64 L 90.5 61 L 85 56.5 Q 81.7 52.8 83 44.5 L 89.5 36 L 100.5 32 Z " /><path fill="rgb(0,0,0)" stroke="rgb(0,0,0)" stroke-width="1" opacity="1" d="M 200.5 33 L 216.5 34 L 228 42.5 L 234 54.5 L 234 65.5 Q 232 76.5 224.5 82 L 212.5 88 L 201.5 88 Q 189.6 85.4 184 76.5 L 180 67.5 L 179 59.5 Q 181.3 58.3 180 53.5 L 184 44.5 L 191.5 37 L 200.5 33 Z M 204 43 L 199 45 L 191 55 Q 189 65 193 71 Q 197 77 206 78 L 213 77 L 219 73 L 223 64 Q 224 53 219 49 Q 214 43 204 43 Z " /><path fill="rgb(0,0,0)" stroke="rgb(0,0,0)" stroke-width="1" opacity="1" d="M 50 34 L 60.5 34 L 61 35.5 L 62 36.5 L 62 44.5 L 62 46.5 L 62 85.5 L 60.5 87 L 51.5 87 L 50 85.5 L 50 34 Z " /><path fill="rgb(0,0,0)" stroke="rgb(0,0,0)" stroke-width="1" opacity="1" d="M 245 34 L 256 34 L 256 43.5 L 258 44 Q 258.7 38.6 263.5 36 Q 268.4 33.1 276 34 L 276 44 L 267.5 44 L 259 50.5 L 257 55.5 L 257 87 L 245 86.5 L 245 84.5 L 245 34 Z " /><path fill="rgb(0,0,0)" stroke="rgb(0,0,0)" stroke-width="1" opacity="1" d="M 279 34 L 290.5 34 L 291 35.5 L 302 61.5 L 304 72 Q 307.3 73.3 306 68.5 L 319 34 L 330.5 34 L 331 35.5 L 303.5 103 L 292.5 103 L 292 101.5 L 299 86.5 L 299 83.5 L 279 34 Z " /></svg>